<svg xmlns="http://www.w3.org/2000/svg" data-name="Layer 1" viewBox="0 0 64 64" id="flower"><path fill="#fdafab" d="M14.5 46.894c.658 4.427 5.579 6.006 5.579 6.006 3.543 1.137 6.167 1.136 6.56 0 .327-.948-.657-1.264-.329-2.213s1.311-.633 1.639-1.582c.393-1.139-1.707-2.656-5.25-3.792C22.7 45.31 17.783 43.731 14.5 46.894zM14.5 46.894c2.167-3.954-.851-8.02-.851-8.02-2.174-2.928-4.3-4.414-5.309-3.715-.844.582-.24 1.4-1.084 1.977s-1.447-.231-2.29.351c-1.012.7-.238 3.115 1.935 6.043C6.905 43.53 9.923 47.6 14.5 46.894z"></path><path fill="#fdafab" d="M14.5,46.894c-3.23-3.209-8.166-1.7-8.166-1.7C2.784,46.275.666,47.76,1.043,48.9c.314.953,1.3.652,1.615,1.605s-.673,1.254-.359,2.207c.377,1.143,3,1.183,6.551.1C8.85,52.814,13.786,51.308,14.5,46.894Z"></path><path fill="#fdafab" d="M14.5 46.894c-4.163 1.972-4.2 6.971-4.2 6.971-.027 3.6.785 6.006 2.029 6.015 1.038.007 1.045-.993 2.082-.986s1.03 1.007 2.067 1.014c1.245.009 2.092-2.385 2.119-5.985C18.6 53.923 18.638 48.923 14.5 46.894zM14.5 46.894c4.565.768 7.636-3.25 7.636-3.25 2.211-2.894 3.017-5.3 2.016-6.01-.834-.594-1.448.209-2.283-.385s-.22-1.4-1.054-1.991c-1-.713-3.142.741-5.353 3.635C15.466 38.893 12.4 42.911 14.5 46.894z"></path><path fill="#fdbfbc" d="M12.4 37.34c-1.29-1.17-2.4-1.63-3.06-1.18-.84.58-.24 1.39-1.08 1.98s-1.45-.24-2.29.35c-1.01.7-.24 3.11 1.93 6.04 0 0 .06.08.18.23A9.212 9.212 0 016.9 43.53c-2.17-2.93-2.94-5.34-1.93-6.04.84-.59 1.45.23 2.29-.35s.24-1.4 1.08-1.98C9.16 34.6 10.7 35.45 12.4 37.34zM3.25 53.45a1.274 1.274 0 01-.95-.74c-.3-.91.59-1.22.38-2.09.37.2.79.33.98.89C3.94 52.37 3.17 52.69 3.25 53.45z"></path><path fill="#fdbfbc" d="M14.5,46.89c-.01.06-.02.11-.03.17-3.15-2.09-7.13-.87-7.13-.87-3.46,1.05-5.55,2.48-5.32,3.61-.37-.21-.79-.34-.98-.9-.37-1.14,1.74-2.63,5.3-3.71C6.34,45.19,11.27,43.68,14.5,46.89Z"></path><path fill="#fdbfbc" d="M16.78 48.71a6.53 6.53 0 00-1.28-.82c-4.16 1.98-4.2 6.98-4.2 6.98a11.961 11.961 0 00.8 4.98c-1.11-.28-1.82-2.6-1.8-5.98 0 0 .04-5 4.2-6.98A6.8 6.8 0 0116.78 48.71zM21.31 36.09c-1.12-.08-2.95 1.33-4.84 3.8 0 0-2.61 3.42-1.36 7.08-.2-.02-.4-.04-.61-.08-2.1-3.98.97-8 .97-8 2.21-2.89 4.35-4.34 5.35-3.63A1.137 1.137 0 0121.31 36.09z"></path><path fill="#fdafab" d="M45 22c-4.8-4.8-5-8.4-5-12s1.8-6 3-6c1 0 1 1 2 1s1-1 2-1c1.2 0 3 2.4 3 6S49.8 17.2 45 22zM14.786 28.75c3.3-3.022 1.923-7.83 1.923-7.83-.989-3.461-2.418-5.549-3.572-5.219-.961.274-.686 1.236-1.648 1.511s-1.236-.687-2.2-.412c-1.154.329-1.263 2.857-.274 6.318C9.017 23.118 10.39 27.926 14.786 28.75z"></path><path fill="#fdbfbc" d="M14.95,16.84a1.007,1.007,0,0,0-.81-.14c-.96.28-.69,1.24-1.65,1.51s-1.24-.69-2.2-.41c-1.15.33-1.26,2.86-.27,6.32a9.593,9.593,0,0,0,1.77,3.21,9.407,9.407,0,0,1-2.77-4.21c-.99-3.46-.88-5.99.27-6.32.96-.28,1.24.69,2.2.41s.69-1.23,1.65-1.51C13.7,15.54,14.34,15.96,14.95,16.84Z"></path><path fill="#fdafab" d="M37.226 58.792c2.265-2.075 1.321-5.377 1.321-5.377-.679-2.377-1.66-3.811-2.453-3.585-.66.189-.471.849-1.132 1.038s-.849-.472-1.509-.283c-.793.226-.868 1.962-.189 4.34C33.264 54.925 34.208 58.226 37.226 58.792zM45.534 48.833c1.579 4.184 6.553 4.7 6.553 4.7 3.581.37 6.05-.18 6.173-1.373.1-.995-.892-1.1-.789-2.092s1.1-.893 1.2-1.887c.123-1.194-2.182-2.236-5.763-2.606C52.908 45.572 47.934 45.059 45.534 48.833zM45 22c-6.121 3.082-9.648 2.16-13.113 1.047s-5.212-3.566-4.837-4.707c.313-.951 1.275-.642 1.588-1.593s-.65-1.26-.337-2.211c.375-1.142 3.248-2.112 6.713-1S41.881 15.952 45 22z"></path><path fill="#fdafab" d="M45,22c1.062,6.718-.892,9.754-3.008,12.672s-4.983,3.8-5.954,3.1c-.809-.589-.221-1.4-1.03-1.988s-1.4.221-2.206-.368c-.971-.706-1.017-3.712,1.1-6.63S38.3,23.064,45,22Z"></path><path fill="#fdafab" d="M45,22c6.7,1.064,8.982,3.865,11.1,6.783s2.07,5.924,1.1,6.63c-.809.589-1.4-.221-2.206.368s-.221,1.4-1.03,1.988c-.971.707-3.838-.178-5.954-3.1S43.938,28.718,45,22Z"></path><path fill="#fdafab" d="M45,22c3.119-6.048,6.521-7.351,9.986-8.463s6.338-.143,6.713,1c.313.951-.65,1.26-.337,2.211s1.275.642,1.588,1.593c.375,1.141-1.372,3.595-4.837,4.707S51.121,25.082,45,22Z"></path><ellipse cx="14.504" cy="46.894" fill="#fad4af" rx="3.112" ry="3"></ellipse><path fill="#fdbfbc" d="M49.57 7.07A2.245 2.245 0 0048 6c-1 0-1 1-2 1s-1-1-2-1c-1.2 0-3 2.4-3 6a15.811 15.811 0 00.94 6.21A14.281 14.281 0 0140 10c0-3.6 1.8-6 3-6 1 0 1 1 2 1s1-1 2-1C47.83 4 48.96 5.16 49.57 7.07zM37.5 50.86a.587.587 0 00-.41-.03c-.66.19-.47.85-1.13 1.04s-.85-.47-1.51-.29c-.79.23-.87 1.97-.19 4.34a6.6 6.6 0 001.07 2.03 6.507 6.507 0 01-2.07-3.03c-.68-2.37-.6-4.11.19-4.34.66-.18.85.48 1.51.29s.47-.85 1.13-1.04C36.53 49.7 37.03 50.08 37.5 50.86zM58.67 48.18a1.087 1.087 0 01-.13.44c-.52-.95-2.62-1.74-5.63-2.05 0 0-4.63-.47-7.11 2.87a5.626 5.626 0 01-.27-.61c2.4-3.77 7.38-3.26 7.38-3.26C56.49 45.94 58.79 46.98 58.67 48.18z"></path><path fill="#fdbfbc" d="M45,22a.536.536,0,0,1-.11.05c-2.82-4.41-5.82-5.53-8.88-6.51-3.46-1.12-6.33-.15-6.71,1-.31.95.65,1.26.34,2.21s-1.28.64-1.59,1.59a1.142,1.142,0,0,0-.05.33,2.678,2.678,0,0,1-.95-2.33c.31-.95,1.28-.64,1.59-1.59s-.65-1.26-.34-2.21c.38-1.15,3.25-2.12,6.71-1S41.88,15.95,45,22Z"></path><path fill="#fdbfbc" d="M45.25,24.13c-6.12,1.14-8.31,3.84-10.35,6.65a8.446,8.446,0,0,0-1.74,4.81,1.014,1.014,0,0,1-.36-.18c-.97-.7-1.01-3.71,1.1-6.63S38.3,23.06,45,22C45.12,22.75,45.2,23.46,45.25,24.13Z"></path><path fill="#fbddbf" d="M17.16,45.36a3.19,3.19,0,0,0-3.47.09,2.933,2.933,0,0,0-.85,3.98,2.953,2.953,0,0,1-.15-4.98,3.187,3.187,0,0,1,4.34.7A1.2,1.2,0,0,1,17.16,45.36Z"></path><circle cx="45" cy="22" r="4" fill="#fad4af"></circle><path fill="#fbddbf" d="M48.93,21.28A4,4,0,0,0,42,24a3.383,3.383,0,0,0,.07.72,4,4,0,1,1,6.86-3.44Z"></path></svg>